<svg version="1.1" id="Layer_1" xmlns="http://www.w3.org/2000/svg" xmlns:xlink="http://www.w3.org/1999/xlink" x="0px" y="0px"
	 width="100%" viewBox="0 0 4000 4000" enable-background="new 0 0 4000 4000" xml:space="preserve">
<path fill="#FFFFFF" opacity="1.000000" stroke="none" 
	d="
M2624.000000,4002.000000 
	C1749.333374,4002.000000 875.666687,4002.000000 2.000000,4002.000000 
	C2.000000,2668.666748 2.000000,1335.333374 2.000000,2.000000 
	C1335.333374,2.000000 2668.666748,2.000000 4002.000000,2.000000 
	C4002.000000,1335.333374 4002.000000,2668.666748 4002.000000,4002.000000 
	C3543.000000,4002.000000 3084.000000,4002.000000 2624.000000,4002.000000 
M1026.353027,99.966164 
	C1026.347046,100.966026 1026.335693,101.965897 1026.335693,102.965759 
	C1026.334839,1367.608154 1026.334839,2632.250488 1026.343872,3896.892822 
	C1026.343872,3899.889160 1026.480713,3902.885498 1026.179199,3906.991455 
	C1026.824829,3907.143555 1027.470459,3907.295410 1029.965942,3907.649902 
	C1030.966187,3907.656982 1031.966309,3907.669678 1032.966553,3907.669678 
	C1680.621826,3907.671143 2328.277100,3907.672363 2975.932373,3907.672363 
	C2977.599121,3907.672363 2979.290039,3907.849121 2980.926270,3907.625000 
	C2983.114258,3907.325439 2985.259521,3906.713867 2987.667969,3906.182129 
	C2987.667969,3903.931152 2987.667969,3902.294922 2987.667969,3900.658447 
	C2987.667236,2637.013916 2987.665771,1373.369629 2987.678955,109.725189 
	C2987.679199,95.221886 2988.465820,96.319260 2974.072998,96.319481 
	C2329.084229,96.329384 1684.095581,96.327682 1039.106934,96.337318 
	C1035.444092,96.337372 1031.781128,96.477707 1027.008301,96.179146 
	C1026.856689,96.824860 1026.705200,97.470566 1026.353027,99.966164 
z"/>
<path fill="#000000" opacity="1.000000" stroke="none" 
	d="
M1026.553589,3905.881836 
	C1026.480713,3902.885498 1026.343872,3899.889160 1026.343872,3896.892822 
	C1026.334839,2632.250488 1026.334839,1367.608154 1026.335693,102.965759 
	C1026.335693,101.965897 1026.347046,100.966026 1026.853516,98.950653 
	C1027.870117,97.618721 1028.124878,97.157852 1028.118286,96.552536 
	C1031.781128,96.477707 1035.444092,96.337372 1039.106934,96.337318 
	C1684.095581,96.327682 2329.084229,96.329384 2974.072998,96.319481 
	C2988.465820,96.319260 2987.679199,95.221886 2987.678955,109.725189 
	C2987.665771,1373.369629 2987.667236,2637.013916 2987.667969,3900.658447 
	C2987.667969,3902.294922 2987.667969,3903.931152 2987.667969,3906.182129 
	C2985.259521,3906.713867 2983.114258,3907.325439 2980.926270,3907.625000 
	C2979.290039,3907.849121 2977.599121,3907.672363 2975.932373,3907.672363 
	C2328.277100,3907.672363 1680.621826,3907.671143 1032.966553,3907.669678 
	C1031.966309,3907.669678 1030.966187,3907.656982 1028.950684,3907.148438 
	C1027.619507,3906.130127 1027.158936,3905.875244 1026.553589,3905.881836 
z"/>
<path fill="#404040" opacity="1.000000" stroke="none" 
	d="
M1027.563232,96.365845 
	C1028.124878,97.157852 1027.870117,97.618721 1026.953857,98.025711 
	C1026.705200,97.470566 1026.856689,96.824860 1027.563232,96.365845 
z"/>
<path fill="#404040" opacity="1.000000" stroke="none" 
	d="
M1026.366455,3906.436523 
	C1027.158936,3905.875244 1027.619507,3906.130127 1028.025635,3907.047363 
	C1027.470459,3907.295410 1026.824829,3907.143555 1026.366455,3906.436523 
z"/>
</svg>