<svg version="1.1" id="Layer_1" xmlns="http://www.w3.org/2000/svg" xmlns:xlink="http://www.w3.org/1999/xlink" x="0px" y="0px"
	 width="100%" viewBox="0 0 1024 1024" enable-background="new 0 0 1024 1024" xml:space="preserve">
<path fill="#000000" opacity="1.000000" stroke="none" 
	d="
M762.968445,167.459991 
	C765.421936,184.461746 766.115967,201.060364 761.255676,217.289078 
	C752.893677,245.209915 740.382874,270.974823 719.466125,291.829254 
	C712.164551,299.109039 703.887146,305.370300 694.490906,309.930237 
	C693.047302,310.630859 691.267700,310.860138 690.251770,312.822205 
	C698.920959,319.799927 706.988953,327.399353 713.494995,336.569946 
	C725.990173,354.182648 730.672546,373.790802 729.180359,395.136963 
	C728.240662,408.578552 727.272339,422.006378 724.652466,435.255035 
	C719.898804,459.294434 712.623230,482.645691 704.743774,505.779358 
	C688.912964,552.258057 671.832886,598.292603 654.840637,644.359375 
	C642.464417,677.911743 630.878357,711.755249 618.905945,745.456848 
	C604.308044,786.548584 591.280151,828.153564 578.232117,869.751465 
	C568.624634,900.380615 560.093323,931.349060 549.470093,961.656616 
	C545.204102,973.827393 540.043945,985.544373 529.273315,993.678406 
	C525.103638,996.827515 520.516602,999.173523 515.513428,1000.559204 
	C511.463684,1001.680725 508.131409,999.159241 504.793976,997.548584 
	C491.333405,991.052429 484.710968,978.890076 479.906952,965.732910 
	C469.977875,938.539612 462.192139,910.645996 453.618866,883.009094 
	C444.747894,854.412598 435.783905,825.841370 426.465607,797.388367 
	C418.132416,771.943481 409.418854,746.619568 400.579102,721.345154 
	C393.051666,699.822815 385.120117,678.441650 377.341156,657.007507 
	C367.463745,629.791321 357.522339,602.598389 347.680969,575.369263 
	C341.345184,557.839417 334.995117,540.312378 328.907135,522.695740 
	C317.879028,490.783936 306.708984,458.868042 301.487457,425.354462 
	C298.694702,407.429504 296.980865,389.274628 299.703156,371.180237 
	C302.752899,350.909424 313.640015,334.766174 328.156799,320.841949 
	C330.795654,318.310822 333.701691,316.058807 336.466034,313.656799 
	C336.697998,313.455261 336.789459,313.092102 336.945221,312.800354 
	C337.070526,311.476410 335.984131,311.131042 335.135284,310.720947 
	C313.158813,300.103729 297.600159,283.012939 285.794189,262.063904 
	C276.854034,246.200043 268.594513,229.927063 265.392670,211.905884 
	C258.340179,172.211929 265.465210,136.316620 297.968506,109.420570 
	C316.508698,94.078789 338.203003,92.321960 360.633301,100.545761 
	C374.567413,105.654556 387.907806,112.050156 400.515259,119.930702 
	C402.035187,120.880783 403.736176,121.541161 405.709961,122.511086 
	C406.514343,116.339294 404.939697,110.687553 404.723602,104.980225 
	C403.811829,80.898010 413.089081,62.261246 432.990448,48.391647 
	C456.326324,32.128460 481.744965,23.910015 510.282745,25.548721 
	C517.565674,25.966921 524.919189,25.230024 532.192566,25.725216 
	C563.476868,27.855165 589.980591,40.309200 611.038330,63.633251 
	C621.273315,74.969841 622.866089,89.327568 623.085999,103.784439 
	C623.178040,109.836838 622.152344,115.906235 621.547668,122.988846 
	C628.644165,119.039474 634.865967,115.289017 641.338379,112.037315 
	C653.230896,106.062592 665.097656,99.786491 678.341736,97.366531 
	C699.603638,93.481537 718.487366,98.163994 734.451172,113.472435 
	C749.869995,128.258270 759.896057,145.728775 762.968445,167.459991 
z"/>
</svg>